<svg xmlns="http://www.w3.org/2000/svg" viewBox="0 0 32 32"><path fill="#c22626" d="M2 1.85h28v28H2z"/><path fill="#fff" stroke="#000" stroke-miterlimit="1.41" stroke-width=".36" d="m12.1 19.1.26.24 3.05-.25.21-.02v-.83l-.25-.24-.58.04-.17-.01c-.04 0-.05-.02-.05-.02h-.01l-.02-.04a.84.84 0 0 1-.02-.23v-3l2.35 4.07.08.13.15-.01 1.93-.16.21-.01v-5.17c0-.27.03-.34.07-.38.01-.01.05-.04.13-.06.09-.02.21-.04.39-.05l.25-.02.21-.01v-.83l-.25-.23-3.03.25-.21.02v.82l.25.23.4-.02.1-.01h.26c.03 0 .05.02.06.03.01.02.04.08.04.2v2.87l-2.27-3.9-.08-.12-.15.01-3.09.3-.21.01v.8l.24.23.49-.02h.17l.1.03.03.04c.02.02.03.06.04.15v3.92c0 .08-.01.17-.05.24-.02.05-.07.1-.21.11l-.6.06-.21.02v.2z"/><path fill="#fff" stroke="#000" stroke-miterlimit="1.41" stroke-width=".32" d="m7.8 13.27-.06.29c-.1-.09-.23-.18-.37-.27a1.41 1.41 0 0 0-.52-.15 4.2 4.2 0 0 0-1.71.17 3.4 3.4 0 0 0-2.38 2.83c-.12 1.08.02 2.08.57 2.79.56.72 1.5 1.08 2.86.97a2.96 2.96 0 0 0 2.26-1.15c.43-.57.57-1.23.57-1.67l-.25-.23-.74.06-.23.01.02.23c.02.31-.1.82-.42 1.19-.15.18-.34.32-.56.39-.23.07-.5.09-.85-.01-.49-.15-.76-.63-.88-1.28a5.58 5.58 0 0 1 .01-1.83v-.01c.03-.23.15-.59.39-.89a1.4 1.4 0 0 1 1.1-.53c.52-.01.81.2.98.47.18.28.24.63.23.87l.25.23.74-.07.2-.02v-2.4l-.24-.22-.76.05-.17.02z"/><path fill="#fff" stroke="#000" stroke-miterlimit="1.41" stroke-width=".3" d="m9.88 12.47-.15.04v.34l.25.2c.48-.15.9-.49 1.15-.93.18-.3.22-.7.06-1.02-.13-.26-.38-.46-.68-.46a.93.93 0 0 0-.9.8c-.03.33.23.69.58.7.06 0 .19-.05.1.04a.76.76 0 0 1-.42.3z"/><path fill="#fff" stroke="#000" stroke-dashoffset="4.96" stroke-width=".34" d="m21.66 9.85-.01 1.04s.91-.11 1.07-.02c.14.3 0 6.3-.03 6.6-.37.09-.82.12-1.05.2l.02 1.04 4.19-.45-.02-1.05s-.86.11-1.04 0c-.03-.1-.12-2.77-.12-2.77s1.12.03 2.71-.38c0 0 1.45-.47 1.54-2.45-.05-1.93-1.39-2.4-1.96-2.42-.22-.08-5 .64-5.3.66zm4 .74c.63 0 1.16.29 1.19 1.1-.09 1.2-.8 1.45-1.91 1.44l-.03-2.42c.25-.07.5-.12.75-.12z"/></svg>