<?xml version="1.0" encoding="UTF-8" standalone="no"?>

<svg
   xmlns:dc="http://purl.org/dc/elements/1.1/"
   xmlns:cc="http://creativecommons.org/ns#"
   xmlns:rdf="http://www.w3.org/1999/02/22-rdf-syntax-ns#"
   xmlns:svg="http://www.w3.org/2000/svg"
   xmlns="http://www.w3.org/2000/svg"
   xmlns:xlink="http://www.w3.org/1999/xlink"
   xmlns:sodipodi="http://sodipodi.sourceforge.net/DTD/sodipodi-0.dtd"
   xmlns:inkscape="http://www.inkscape.org/namespaces/inkscape"
   version="1.1"
   id="Layer_1"
   x="0px"
   y="0px"
   viewBox="0 0 22.9 21.6"
   enable-background="new 0 0 22.9 21.6"
   xml:space="preserve"
   inkscape:version="0.48.5 r10040"
   width="100%"
   height="100%"
   sodipodi:docname="tw_profile.svg"><metadata
     id="metadata3016"><rdf:RDF><cc:Work
         rdf:about=""><dc:format>image/svg+xml</dc:format><dc:type
           rdf:resource="http://purl.org/dc/dcmitype/StillImage" /></cc:Work></rdf:RDF></metadata><defs
     id="defs3014"></defs><sodipodi:namedview
     pagecolor="#ffffff"
     bordercolor="#666666"
     borderopacity="1"
     objecttolerance="10"
     gridtolerance="10"
     guidetolerance="10"
     inkscape:pageopacity="0"
     inkscape:pageshadow="2"
     inkscape:window-width="640"
     inkscape:window-height="480"
     id="namedview3012"
     showgrid="false"
     inkscape:zoom="10.925926"
     inkscape:cx="11.45"
     inkscape:cy="10.8"
     inkscape:window-x="848"
     inkscape:window-y="267"
     inkscape:window-maximized="0"
     inkscape:current-layer="Layer_1" /><g
     id="g3008"><path
       d="m 14,5.7 c 0.1,0 0.2,0 0.3,0 0.1,0 0.3,0 0.4,0.1 0.6,0.1 1.1,0.4 1.5,0.8 0,0 0.1,0 0.1,0 0.5,-0.1 1,-0.3 1.4,-0.5 0.1,0 0.2,-0.1 0.3,-0.1 -0.2,0.7 -0.6,1.2 -1.2,1.5 0.5,-0.1 1.1,-0.2 1.6,-0.4 0,0 0,0 0,0 0,0 0,0 0,0.1 -0.4,0.5 -0.8,0.9 -1.3,1.3 0,0 0,0 0,0.1 0,0.6 0,1.2 -0.1,1.8 -0.2,1 -0.5,1.9 -1.1,2.8 -0.6,1 -1.4,1.9 -2.5,2.6 -1.3,0.8 -2.7,1.2 -4.2,1.2 -0.6,0 -1.1,0 -1.7,-0.1 -1,-0.2 -1.9,-0.6 -2.8,-1.1 0,0 0,0 0,0 1.5,0.1 2.9,-0.2 4.1,-1.2 C 8.4,14.6 8,14.5 7.7,14.3 7.3,14.1 7,13.9 6.8,13.6 6.5,13.3 6.4,13 6.2,12.6 6.6,12.7 7,12.7 7.4,12.6 5.8,12.2 5.1,10.8 5.2,9.8 5.6,9.9 6,10 6.5,10 5.9,9.6 5.5,9 5.3,8.3 5.1,7.6 5.2,6.9 5.6,6.3 7.2,8.1 9.1,9 11.4,9.2 c 0,0 0,-0.1 0,-0.1 -0.1,-0.5 -0.1,-1 0.1,-1.5 0.4,-1 1.1,-1.6 2.1,-1.8 0.1,0 0.3,0 0.4,-0.1 z"
       id="path3010"
       inkscape:connector-curvature="0"
       style="fill:#ffffff" /></g>
</svg>
